<svg width="20" height="20" viewBox="0 0 20 20" fill="none" xmlns="http://www.w3.org/2000/svg">
<g clip-path="url(#clip0_1_1220)">
<path d="M8.22038 0H7.09941L6.35211 2.85675L5.6048 0H4.35928C4.60839 0.745238 4.85749 1.36627 5.10659 2.11151C5.48025 3.10516 5.72935 3.9746 5.72935 4.47143V7.45238H6.85031V4.47143L8.22038 0ZM11.2096 5.58929V3.72619C11.2096 3.10516 11.0851 2.73254 10.836 2.35992C10.5869 1.9873 10.2132 1.8631 9.71499 1.8631C9.21679 1.8631 8.84313 2.11151 8.59403 2.48413C8.34493 2.73254 8.22038 3.10516 8.22038 3.72619V5.71349C8.22038 6.33452 8.34493 6.70714 8.59403 6.95556C8.84313 7.32818 9.21679 7.45238 9.71499 7.45238C10.2132 7.45238 10.5869 7.20397 10.836 6.83135C11.0851 6.70714 11.2096 6.21032 11.2096 5.58929ZM10.2132 5.8377C10.2132 6.33452 10.0886 6.58294 9.71499 6.58294C9.34134 6.58294 9.21679 6.33452 9.21679 5.8377V3.47778C9.21679 2.98095 9.34134 2.73254 9.71499 2.73254C10.0886 2.73254 10.2132 2.98095 10.2132 3.47778V5.8377ZM14.9462 7.45238V1.8631H13.9497V6.08611C13.7006 6.45873 13.5761 6.58294 13.327 6.58294C13.2024 6.58294 13.0779 6.45873 13.0779 6.33452V1.8631H12.0815V6.21032C12.0815 6.58294 12.0815 6.83135 12.206 7.07976C12.206 7.32818 12.4551 7.45238 12.8288 7.45238C13.2024 7.45238 13.5761 7.20397 13.9497 6.83135V7.45238H14.9462Z" fill="white"/>
<path d="M15.4439 13.0416C15.0705 13.0416 14.9461 13.29 14.9461 13.7869V14.2837H15.9418V13.7869C15.9418 13.29 15.8173 13.0416 15.4439 13.0416Z" fill="white"/>
<path d="M11.8321 13.0416C11.7077 13.0416 11.4587 13.1658 11.3343 13.29V16.6436C11.4587 16.7678 11.7077 16.892 11.8321 16.892C12.081 16.892 12.2055 16.6436 12.2055 16.1468V13.7869C12.2055 13.29 12.081 13.0416 11.8321 13.0416Z" fill="white"/>
<path d="M17.9355 10.3091C17.6864 9.43967 16.9391 8.69443 16.1918 8.69443C14.1989 8.44601 12.0816 8.44601 9.96418 8.44601C7.84681 8.44601 5.85399 8.44601 3.73661 8.69443C2.9893 8.69443 2.242 9.43967 1.99289 10.3091C1.74379 11.5512 1.74379 12.9174 1.74379 14.1595C1.74379 15.4016 1.74379 16.7678 1.99289 18.0099C2.242 18.8793 2.86475 19.5004 3.73661 19.6246C5.85399 19.873 7.84681 19.873 9.96418 19.873C12.0816 19.873 14.0744 19.873 16.1918 19.6246C17.0636 19.5004 17.8109 18.8793 17.9355 18.0099C18.1846 16.7678 18.1846 15.4016 18.1846 14.1595C18.1846 12.9174 18.1846 11.5512 17.9355 10.3091ZM6.47674 11.427H5.23123V17.7615H4.11027V11.427H2.9893V10.3091H6.47674V11.427ZM9.46598 17.7615H8.46956V17.1405C8.09591 17.6373 7.72226 17.7615 7.3486 17.7615C6.97495 17.7615 6.8504 17.6373 6.72585 17.3889C6.72585 17.2647 6.60129 17.0163 6.60129 16.5194V12.1722H7.5977V16.5194C7.5977 16.6436 7.72226 16.7678 7.84681 16.7678C8.09591 16.7678 8.22046 16.6436 8.46956 16.271V12.1722H9.46598V17.7615ZM13.2025 16.0226C13.2025 16.5194 13.2025 16.892 13.078 17.1405C12.9534 17.5131 12.7043 17.7615 12.3307 17.7615C11.957 17.7615 11.5834 17.5131 11.3342 17.1405V17.6373H10.3378V10.3091H11.3342V12.669C11.7079 12.2964 11.957 12.048 12.3307 12.048C12.7043 12.048 12.9534 12.2964 13.078 12.669C13.2025 12.9174 13.2025 13.2901 13.2025 13.7869V16.0226ZM16.9391 15.1532H14.9462V16.1468C14.9462 16.6436 15.0708 16.892 15.4444 16.892C15.6935 16.892 15.8181 16.7678 15.9426 16.5194V15.8984H16.9391V16.6436C16.9391 16.892 16.8145 17.0163 16.69 17.2647C16.4409 17.6373 16.0672 17.8857 15.4444 17.8857C14.9462 17.8857 14.5726 17.6373 14.1989 17.2647C13.9498 17.0163 13.8253 16.5194 13.8253 16.0226V14.1595C13.8253 13.5385 13.9498 13.1659 14.0744 12.9174C14.3235 12.5448 14.6971 12.2964 15.3199 12.2964C15.8181 12.2964 16.1918 12.5448 16.4409 12.9174C16.69 13.1659 16.69 13.6627 16.69 14.1595V15.1532H16.9391Z" fill="white"/>
</g>
<defs>
<clipPath id="clip0_1_1220">
<rect width="19.9282" height="19.873" fill="white"/>
</clipPath>
</defs>
</svg>
